<svg width="72" height="73" viewBox="0 0 72 73" fill="none" xmlns="http://www.w3.org/2000/svg">
<path d="M49.8203 44.0726C49.9727 43.7487 50.0806 43.4058 50.1441 43.0503C50.2076 42.6947 50.233 42.2946 50.233 41.8375C50.233 41.4628 50.214 41.1263 50.1759 40.8278C50.1378 40.5294 50.0679 40.2373 49.9727 39.9516C49.8711 39.6658 49.7441 39.4245 49.579 39.2341C49.4139 39.0436 49.2043 38.8848 48.9377 38.7705C48.671 38.6562 48.3598 38.5991 48.0106 38.5991H44.8928V45.0949H48.0106C48.4551 45.0949 48.8297 45.006 49.1345 44.8282C49.4393 44.6504 49.6679 44.4028 49.8203 44.0726Z" fill="#FF5800"/>
<path d="M39.0828 47.5903C38.9812 47.2729 38.8542 47.0062 38.6955 46.7903C38.5367 46.5744 38.3208 46.4029 38.0542 46.2759C37.7875 46.1489 37.47 46.0854 37.108 46.0854H34.3332V53.7242H37.108C37.4636 53.7242 37.7684 53.648 38.0351 53.502C38.3018 53.3559 38.5113 53.1654 38.6764 52.9241C38.8415 52.6829 38.9685 52.3844 39.0701 52.0288C39.1654 51.6669 39.2352 51.2986 39.2733 50.9303C39.3114 50.5557 39.3305 50.1366 39.3305 49.6731C39.3305 49.2603 39.3114 48.8857 39.2797 48.5619C39.2479 48.238 39.1781 47.9142 39.0828 47.5903Z" fill="#FF5800"/>
<path d="M37.8002 44.6377C38.0732 44.4726 38.2827 44.2377 38.4351 43.9456C38.5875 43.6471 38.6955 43.3296 38.759 42.9804C38.8288 42.6312 38.8606 42.2502 38.8606 41.8375C38.8606 39.6341 38.0224 38.5356 36.3524 38.5356H34.3332V44.8917H36.8223C37.2033 44.8917 37.5271 44.8091 37.8002 44.6441V44.6377Z" fill="#FF5800"/>
<path d="M14.4013 0.544922C6.48311 0.544922 0 7.02168 0 14.9462V72.5449H57.5987C65.5169 72.5449 72 66.0618 72 58.1437V0.544922H14.4013ZM39.267 18.1846H46.5882V20.6229H42.8165V33.2907H46.5882V35.729H39.267V18.1846ZM22.9989 18.1846H26.5484V35.7226H22.9989V18.1846ZM14.8902 35.729L11.6645 18.1909H15.0235L16.5729 28.8204L18.2873 18.1909H21.6019L18.1349 35.729H14.8902ZM26.6119 54.9053H20.1542V37.3545H21.7035V53.6607H26.6119V54.9053ZM29.5709 54.9053H28.0215V37.3545H29.5709V54.9053ZM27.939 18.1846H31.3043L32.8537 28.8141L34.5681 18.1846H37.8827L34.4157 35.7226H31.171L27.9453 18.1846H27.939ZM40.8036 51.2923C40.7465 51.7621 40.6322 52.232 40.4544 52.7019C40.2829 53.1718 40.0543 53.5655 39.7686 53.8703C39.4829 54.1751 39.0955 54.4227 38.6066 54.6132C38.1176 54.8037 37.5398 54.8989 36.8731 54.8989H32.7965V37.3482H36.5683C37.1715 37.3482 37.7113 37.4307 38.1811 37.6022C38.651 37.7736 39.032 37.9958 39.3241 38.2752C39.6162 38.5546 39.8575 38.8912 40.0416 39.2849C40.2258 39.6785 40.3591 40.0786 40.429 40.4913C40.4988 40.8977 40.5369 41.3358 40.5369 41.8057C40.5369 42.5359 40.3655 43.2471 40.0289 43.9392C39.6924 44.6313 39.2289 45.1139 38.6383 45.387C39.0511 45.5584 39.413 45.8061 39.7178 46.1362C40.0226 46.4664 40.2575 46.8347 40.4226 47.2411C40.5877 47.6475 40.702 48.0539 40.7782 48.4603C40.8544 48.8666 40.8925 49.2667 40.8925 49.6667C40.8925 50.2763 40.8608 50.8224 40.8036 51.2859V51.2923ZM50.4044 54.9053L47.8455 46.3394H44.8992V54.9053H43.3499V37.3545H48.0296C48.6202 37.3545 49.1408 37.4371 49.5917 37.6022C50.0425 37.7673 50.4044 37.9831 50.6775 38.2498C50.9505 38.5165 51.1728 38.8531 51.3442 39.2467C51.5157 39.6468 51.63 40.0532 51.6935 40.4786C51.757 40.904 51.7887 41.3739 51.7887 41.8883C51.7887 44.1234 50.9759 45.5457 49.344 46.1426L52.0554 54.9053H50.4044ZM51.6808 27.9188L46.9248 30.2999C46.7597 30.3825 46.5819 30.4206 46.4041 30.4206C46.1946 30.4206 45.9787 30.3634 45.7945 30.2491C45.4516 30.0396 45.2421 29.665 45.2421 29.2649V24.5026C45.2421 24.1026 45.4516 23.7279 45.7945 23.5184C46.1374 23.3088 46.5628 23.2898 46.9248 23.4676L51.6808 25.8487C52.0744 26.0456 52.3221 26.4456 52.3221 26.8838C52.3221 27.3219 52.0744 27.7283 51.6808 27.9188ZM60.3482 38.5991H55.7763V45.2473H59.8847V46.422H55.7763V53.6607H60.3482V54.9053H54.227V37.3545H60.3482V38.5991Z" fill="#FF5800"/>
<path d="M21.6972 37.3545H20.1478V54.9053H26.6055V53.6607H21.6972V37.3545Z" fill="white"/>
<path d="M29.5645 37.3482H28.0152V54.8989H29.5645V37.3482Z" fill="white"/>
<path d="M40.4099 47.2411C40.2448 46.8347 40.0099 46.4664 39.7051 46.1362C39.4003 45.8061 39.0384 45.5584 38.6256 45.387C39.2162 45.1139 39.6797 44.6313 40.0162 43.9392C40.3528 43.2471 40.5242 42.5359 40.5242 41.8057C40.5242 41.3358 40.4861 40.8977 40.4163 40.4913C40.3464 40.0849 40.2131 39.6849 40.0289 39.2848C39.8384 38.8912 39.6035 38.5546 39.3114 38.2752C39.0193 37.9958 38.6383 37.7736 38.1684 37.6022C37.6986 37.4307 37.1652 37.3482 36.5556 37.3482H32.7838V54.8989H36.8604C37.5271 54.8989 38.1049 54.8037 38.5939 54.6132C39.0828 54.4227 39.4701 54.1751 39.7559 53.8703C40.0416 53.5655 40.2702 53.1781 40.4417 52.7019C40.6131 52.232 40.7337 51.7558 40.7909 51.2923C40.848 50.8224 40.8798 50.2826 40.8798 49.6731C40.8798 49.273 40.8417 48.8666 40.7655 48.4666C40.6893 48.0602 40.575 47.6538 40.4099 47.2475V47.2411ZM34.3332 38.5292H36.3524C38.0288 38.5292 38.8606 39.6277 38.8606 41.8311C38.8606 42.2438 38.8288 42.6248 38.759 42.9741C38.6891 43.3233 38.5812 43.6408 38.4351 43.9392C38.2827 44.2377 38.0732 44.4663 37.8002 44.6314C37.5271 44.7964 37.2033 44.879 36.8223 44.879H34.3332V38.5229V38.5292ZM39.2733 50.9176C39.2352 51.2923 39.1654 51.6605 39.0701 52.0161C38.9685 52.3781 38.8415 52.6765 38.6764 52.9114C38.5113 53.1464 38.3018 53.3432 38.0351 53.4893C37.7684 53.6353 37.4573 53.7115 37.108 53.7115H34.3332V46.0727H37.108C37.47 46.0727 37.7811 46.1362 38.0541 46.2632C38.3208 46.3902 38.5367 46.5617 38.6955 46.7776C38.8542 46.9935 38.9812 47.2602 39.0828 47.5776C39.1844 47.8951 39.2479 48.219 39.2797 48.5492C39.3114 48.873 39.3305 49.2476 39.3305 49.6604C39.3305 50.1239 39.3114 50.543 39.2733 50.9176Z" fill="white"/>
<path d="M51.7823 41.8883C51.7823 41.3739 51.7506 40.904 51.6871 40.4786C51.6236 40.0532 51.503 39.6404 51.3379 39.2467C51.1664 38.8467 50.9442 38.5165 50.6711 38.2498C50.3981 37.9831 50.0362 37.7673 49.5853 37.6022C49.1345 37.4371 48.6138 37.3545 48.0233 37.3545H43.3435V54.9053H44.8928V46.3394H47.8391L50.3981 54.9053H52.049L49.3377 46.1426C50.9696 45.5457 51.7823 44.1297 51.7823 41.8883ZM48.0106 45.0885H44.8928V38.5927H48.0106C48.3662 38.5927 48.671 38.6499 48.9376 38.7642C49.2043 38.8785 49.4202 39.0372 49.579 39.2277C49.7441 39.4182 49.8711 39.6595 49.9727 39.9452C50.0679 40.231 50.1378 40.5231 50.1759 40.8215C50.214 41.1199 50.233 41.4565 50.233 41.8311C50.233 42.2883 50.2013 42.6947 50.1441 43.0439C50.0806 43.3995 49.979 43.736 49.8203 44.0662C49.6615 44.3964 49.4393 44.6441 49.1345 44.8218C48.8297 44.9996 48.4551 45.0885 48.0106 45.0885Z" fill="white"/>
<path d="M54.2207 54.9053H60.3355V53.6607H55.77V46.4156H59.872V45.2473H55.77V38.5927H60.3355V37.3545H54.2207V54.9053Z" fill="white"/>
<path d="M18.2873 18.1846L16.5729 28.8141L15.0235 18.1846H11.6582L14.8839 35.729H18.1286L21.6019 18.1846H18.2873Z" fill="white"/>
<path d="M26.542 18.1846H22.9925V35.7226H26.542V18.1846Z" fill="white"/>
<path d="M37.87 18.1846H34.5554L32.841 28.8141L31.2916 18.1846H27.9326L31.1583 35.729H34.403L37.87 18.1846Z" fill="white"/>
<path d="M46.5819 33.2907H42.8101V20.6229H46.5819V18.1846H39.2606V35.729H46.5819V33.2907Z" fill="white"/>
<path d="M51.6681 25.8424L46.9121 23.4612C46.5501 23.2834 46.1247 23.3025 45.7818 23.512C45.4389 23.7216 45.2294 24.0962 45.2294 24.4962V29.2586C45.2294 29.6586 45.4389 30.0332 45.7818 30.2428C45.966 30.3571 46.1819 30.4142 46.3914 30.4142C46.5692 30.4142 46.747 30.3761 46.9121 30.2936L51.6681 27.9124C52.0617 27.7156 52.3094 27.3155 52.3094 26.8774C52.3094 26.4393 52.0617 26.0392 51.6681 25.8424Z" fill="white"/>
</svg>
